<?xml version="1.0" encoding="utf-8"?>
<!-- Generator: Adobe Illustrator 22.1.0, SVG Export Plug-In . SVG Version: 6.00 Build 0)  -->
<svg version="1.1" id="Layer_1" xmlns="http://www.w3.org/2000/svg" xmlns:xlink="http://www.w3.org/1999/xlink" x="0px" y="0px"
	 viewBox="0 0 361 115.7" style="enable-background:new 0 0 361 115.7;" xml:space="preserve">
<metadata><?xpacket begin="﻿" id="W5M0MpCehiHzreSzNTczkc9d"?>
<x:xmpmeta xmlns:x="adobe:ns:meta/" x:xmptk="Adobe XMP Core 5.6-c143 79.161356, 2017/09/07-01:11:22        ">
   <rdf:RDF xmlns:rdf="http://www.w3.org/1999/02/22-rdf-syntax-ns#">
      <rdf:Description rdf:about=""/>
   </rdf:RDF>
</x:xmpmeta>
                                                                                                    
                                                                                                    
                                                                                                    
                                                                                                    
                                                                                                    
                                                                                                    
                                                                                                    
                                                                                                    
                                                                                                    
                                                                                                    
                                                                                                    
                                                                                                    
                                                                                                    
                                                                                                    
                                                                                                    
                                                                                                    
                                                                                                    
                                                                                                    
                                                                                                    
                                                                                                    
                           
<?xpacket end="w"?></metadata>
<style type="text/css">
	.st0{fill:#BCBEC0;}
	.st1{fill:#FFFFFF;stroke:#006EB5;stroke-width:3.3;stroke-miterlimit:10;}
	.st2{fill:#010101;}
	.st3{fill:#006EB5;}
	.st4{opacity:0.4;fill:#006EB7;}
</style>
<path class="st0" d="M108.8,54.8c0,29.8-24.2,54-54,54c-29.8,0-54-24.2-54-54c0-29.8,24.2-54,54-54C84.6,0.8,108.8,25,108.8,54.8z"
	/>
<path class="st1" d="M103.5,54.8c0,26.9-21.8,48.7-48.7,48.7c-26.9,0-48.7-21.8-48.7-48.7S27.9,6,54.8,6
	C81.7,6,103.5,27.9,103.5,54.8z"/>
<g>
	<path class="st2" d="M115.5,102.9v3.2c0,0.6,0.1,1,0.3,1.3c0.2,0.2,0.6,0.4,1.3,0.4h0.3v1.1h-7.2v-1.1h0.2c0.7,0,1.1-0.1,1.3-0.4
		c0.2-0.2,0.3-0.7,0.3-1.3v-7.9c0-0.6-0.1-1-0.3-1.3c-0.2-0.2-0.6-0.4-1.3-0.4h-0.3v-1.1l5.4-0.1c1.3,0,2.4,0,3.1,0.1
		c0.7,0.1,1.4,0.3,2,0.6c0.6,0.3,1.1,0.8,1.4,1.3c0.3,0.5,0.5,1.1,0.5,1.8c0,0.9-0.3,1.6-0.8,2.2c-0.5,0.6-1.2,1-2,1.2
		c-0.8,0.2-1.9,0.3-3.2,0.3H115.5z M115.5,101.7h0.6c1,0,1.7-0.2,2.1-0.7c0.3-0.5,0.5-1.1,0.5-1.8c0-0.7-0.1-1.2-0.4-1.6
		c-0.3-0.4-0.6-0.7-1-0.8c-0.4-0.1-1-0.2-1.9-0.2V101.7z"/>
	<path class="st2" d="M129.9,107.7c-0.4,0.5-0.9,0.8-1.4,1.1c-0.5,0.2-1,0.4-1.6,0.4c-0.7,0-1.4-0.2-2-0.6c-0.6-0.4-0.9-1.2-0.9-2.3
		v-3.1c0-0.5-0.1-0.8-0.2-1c-0.2-0.2-0.5-0.3-1-0.3v-1h4.4v5.2c0,0.5,0.1,0.9,0.2,1.1c0.2,0.2,0.4,0.3,0.7,0.3
		c0.3,0,0.5-0.1,0.8-0.3c0.3-0.2,0.6-0.5,0.9-0.9v-3.1c0-0.5-0.1-0.8-0.2-1c-0.2-0.2-0.5-0.3-1.1-0.3v-1h4.5v5.7
		c0,0.5,0.1,0.8,0.2,1c0.2,0.2,0.5,0.3,1.1,0.3v1c-0.2,0-0.3,0-0.5,0c-1.2,0-2.5,0.1-4,0.3V107.7z"/>
	<path class="st2" d="M138.8,107.5l-1.7,1.4h-0.8V98.3c0-0.5-0.1-0.8-0.2-1c-0.2-0.2-0.5-0.3-1.1-0.3v-1l4.5-0.7v6.2
		c0.4-0.3,0.9-0.6,1.3-0.7c0.5-0.2,0.9-0.2,1.4-0.2c1.1,0,2.1,0.4,2.9,1.2c0.8,0.8,1.2,1.8,1.2,3.1c0,1.3-0.4,2.4-1.2,3.2
		c-0.8,0.8-1.8,1.2-2.9,1.2c-0.6,0-1.2-0.1-1.8-0.4C139.8,108.4,139.3,108,138.8,107.5z M139.4,106.5c0.3,0.4,0.6,0.7,0.9,0.8
		c0.3,0.2,0.6,0.3,1,0.3c0.6,0,1-0.2,1.3-0.7c0.3-0.5,0.4-1.2,0.4-2.2c0-1-0.1-1.7-0.4-2.2c-0.3-0.5-0.7-0.7-1.2-0.7
		c-0.3,0-0.7,0.1-1,0.2c-0.3,0.2-0.6,0.4-0.9,0.7V106.5z"/>
	<path class="st2" d="M151.4,95.2v11.2c0,0.5,0.1,0.8,0.2,1c0.2,0.2,0.5,0.3,1.1,0.3v1h-6v-1c0.5,0,0.9-0.1,1.1-0.2
		c0.2-0.1,0.3-0.5,0.3-1.1v-8.1c0-0.5-0.1-0.9-0.2-1c-0.2-0.2-0.6-0.3-1.2-0.3v-1L151.4,95.2z"/>
	<path class="st2" d="M157.9,100.4v6c0,0.5,0.1,0.8,0.2,1c0.2,0.2,0.5,0.3,1.1,0.3v1h-6v-1h0.2c0.6,0,0.9-0.1,1.1-0.3
		c0.1-0.2,0.2-0.5,0.2-1v-2.9c0-0.5-0.1-0.8-0.2-1c-0.2-0.2-0.5-0.3-1-0.3h-0.2v-1L157.9,100.4z M154.6,97c0-0.5,0.2-0.9,0.5-1.2
		c0.3-0.3,0.8-0.5,1.2-0.5c0.5,0,0.9,0.2,1.2,0.5c0.3,0.3,0.5,0.8,0.5,1.3c0,0.5-0.2,0.9-0.5,1.3c-0.3,0.3-0.8,0.5-1.2,0.5
		c-0.5,0-0.9-0.2-1.3-0.5C154.8,97.9,154.6,97.5,154.6,97z"/>
	<path class="st2" d="M168,106.3l1,0.4c-0.3,0.8-0.8,1.3-1.5,1.7c-0.7,0.4-1.6,0.6-2.5,0.6c-1.3,0-2.4-0.4-3.3-1.1
		c-0.9-0.7-1.4-1.7-1.4-3c0-1.4,0.5-2.5,1.5-3.3c1-0.8,2.3-1.2,3.9-1.2c1,0,1.8,0.2,2.3,0.5c0.6,0.4,0.9,0.8,0.9,1.4
		c0,0.3-0.1,0.6-0.3,0.9c-0.2,0.3-0.5,0.4-0.9,0.4c-0.7,0-1.2-0.5-1.4-1.4c-0.1-0.3-0.1-0.5-0.3-0.6c-0.1-0.1-0.3-0.2-0.6-0.2
		c-0.6,0-1,0.2-1.3,0.7c-0.3,0.5-0.4,1.2-0.4,2.1c0,1.3,0.2,2.2,0.5,2.7c0.3,0.6,0.9,0.8,1.6,0.8C166.8,107.8,167.6,107.3,168,106.3
		z"/>
	<path class="st2" d="M175.5,108.5V104h1.2c0.3,1.4,0.8,2.3,1.5,2.9c0.7,0.6,1.4,0.9,2.1,0.9c0.6,0,1-0.2,1.3-0.5
		c0.3-0.3,0.5-0.7,0.5-1.2c0-0.3-0.1-0.6-0.3-1c-0.2-0.3-0.7-0.7-1.5-1.1c-1.5-0.7-2.5-1.3-3.1-1.7c-0.5-0.3-1-0.8-1.3-1.3
		c-0.3-0.5-0.5-1.2-0.5-1.9c0-1.1,0.4-2.1,1.2-2.8c0.8-0.7,1.8-1.1,2.8-1.1c1.1,0,2.1,0.4,2.9,1.1c0.1-0.2,0.2-0.5,0.3-0.9h1.1v3.9
		h-1.1c-0.2-0.9-0.6-1.6-1.1-2.1c-0.5-0.6-1.2-0.8-1.9-0.8c-0.5,0-0.9,0.1-1.2,0.4c-0.3,0.3-0.5,0.6-0.5,1.1c0,0.3,0.1,0.6,0.3,0.9
		c0.2,0.3,0.5,0.5,0.8,0.7c0.3,0.2,1,0.5,2.1,1c1,0.5,1.7,0.9,2.1,1.2c0.5,0.4,0.8,0.8,1.1,1.4c0.3,0.5,0.4,1.1,0.4,1.8
		c0,1.2-0.4,2.2-1.3,2.9c-0.9,0.8-1.9,1.2-3.1,1.2c-0.7,0-1.4-0.1-2-0.4c-0.7-0.3-1.2-0.7-1.6-1.1c-0.2,0.3-0.3,0.7-0.3,1.1H175.5z"
		/>
	<path class="st2" d="M194.1,106.3l1,0.4c-0.3,0.8-0.8,1.3-1.5,1.7c-0.7,0.4-1.6,0.6-2.5,0.6c-1.3,0-2.4-0.4-3.3-1.1
		c-0.9-0.7-1.4-1.7-1.4-3c0-1.4,0.5-2.5,1.5-3.3c1-0.8,2.3-1.2,3.9-1.2c1,0,1.8,0.2,2.3,0.5s0.9,0.8,0.9,1.4c0,0.3-0.1,0.6-0.3,0.9
		c-0.2,0.3-0.5,0.4-0.9,0.4c-0.7,0-1.2-0.5-1.4-1.4c-0.1-0.3-0.1-0.5-0.3-0.6c-0.1-0.1-0.3-0.2-0.6-0.2c-0.6,0-1,0.2-1.3,0.7
		c-0.3,0.5-0.4,1.2-0.4,2.1c0,1.3,0.2,2.2,0.5,2.7c0.3,0.6,0.9,0.8,1.6,0.8C193,107.8,193.7,107.3,194.1,106.3z"/>
	<path class="st2" d="M200.3,103.3v3.1c0,0.5,0.1,0.8,0.2,1c0.1,0.2,0.4,0.3,0.8,0.3v1h-5.5v-1c0.6,0,0.9-0.1,1.1-0.3
		c0.2-0.2,0.2-0.5,0.2-1v-8.1c0-0.5-0.1-0.8-0.2-1c-0.2-0.2-0.5-0.3-1.1-0.3v-1l4.5-0.8v6.6c0.4-0.5,0.9-0.8,1.4-1.1
		c0.5-0.2,1-0.4,1.6-0.4c0.7,0,1.3,0.1,1.7,0.4c0.5,0.3,0.8,0.6,1,1.1c0.2,0.4,0.2,1,0.2,1.8v2.7c0,0.5,0.1,0.8,0.2,1
		c0.2,0.2,0.5,0.3,1,0.3v1H202v-1c0.3,0,0.5-0.1,0.7-0.2c0.2-0.1,0.3-0.5,0.3-1.1v-3.1c0-0.8-0.3-1.3-1-1.3c-0.3,0-0.5,0.1-0.8,0.3
		C200.9,102.6,200.6,102.9,200.3,103.3z"/>
	<path class="st2" d="M208.4,104.7c0-1.3,0.5-2.4,1.4-3.2c1-0.8,2.1-1.1,3.5-1.1c1.3,0,2.5,0.4,3.4,1.1c1,0.7,1.5,1.8,1.5,3.2
		c0,1.3-0.5,2.4-1.4,3.2c-1,0.8-2.1,1.2-3.5,1.2c-1.3,0-2.5-0.4-3.4-1.1C208.9,107.2,208.4,106.1,208.4,104.7z M211.7,104.6
		c0,1.3,0.1,2.1,0.3,2.6c0.2,0.5,0.6,0.7,1.2,0.7c0.5,0,0.8-0.2,1.1-0.6c0.3-0.4,0.4-1.3,0.4-2.7c0-1.2-0.1-2.1-0.4-2.5
		c-0.2-0.4-0.6-0.7-1.2-0.7c-0.4,0-0.8,0.2-1.1,0.6C211.9,102.5,211.7,103.3,211.7,104.6z"/>
	<path class="st2" d="M219.7,104.7c0-1.3,0.5-2.4,1.4-3.2c1-0.8,2.1-1.1,3.5-1.1c1.3,0,2.5,0.4,3.4,1.1c1,0.7,1.5,1.8,1.5,3.2
		c0,1.3-0.5,2.4-1.4,3.2c-1,0.8-2.1,1.2-3.5,1.2c-1.3,0-2.5-0.4-3.4-1.1C220.1,107.2,219.7,106.1,219.7,104.7z M223,104.6
		c0,1.3,0.1,2.1,0.3,2.6c0.2,0.5,0.6,0.7,1.2,0.7c0.5,0,0.8-0.2,1.1-0.6c0.3-0.4,0.4-1.3,0.4-2.7c0-1.2-0.1-2.1-0.4-2.5
		c-0.2-0.4-0.6-0.7-1.2-0.7c-0.4,0-0.8,0.2-1.1,0.6C223.2,102.5,223,103.3,223,104.6z"/>
	<path class="st2" d="M235,95.2v11.2c0,0.5,0.1,0.8,0.2,1c0.2,0.2,0.5,0.3,1.1,0.3v1h-6v-1c0.5,0,0.9-0.1,1.1-0.2
		c0.2-0.1,0.3-0.5,0.3-1.1v-8.1c0-0.5-0.1-0.9-0.2-1c-0.2-0.2-0.6-0.3-1.2-0.3v-1L235,95.2z"/>
	<path class="st2" d="M242.6,108.5V104h1.2c0.3,1.4,0.8,2.3,1.5,2.9c0.7,0.6,1.4,0.9,2.1,0.9c0.6,0,1-0.2,1.3-0.5
		c0.3-0.3,0.5-0.7,0.5-1.2c0-0.3-0.1-0.6-0.3-1c-0.2-0.3-0.7-0.7-1.5-1.1c-1.5-0.7-2.5-1.3-3.1-1.7c-0.5-0.3-1-0.8-1.3-1.3
		c-0.3-0.5-0.5-1.2-0.5-1.9c0-1.1,0.4-2.1,1.2-2.8c0.8-0.7,1.8-1.1,2.8-1.1c1.1,0,2.1,0.4,2.9,1.1c0.1-0.2,0.2-0.5,0.3-0.9h1.1v3.9
		h-1.1c-0.2-0.9-0.6-1.6-1.1-2.1c-0.5-0.6-1.2-0.8-1.9-0.8c-0.5,0-0.9,0.1-1.2,0.4c-0.3,0.3-0.5,0.6-0.5,1.1c0,0.3,0.1,0.6,0.3,0.9
		c0.2,0.3,0.5,0.5,0.8,0.7c0.3,0.2,1,0.5,2.1,1c1,0.5,1.7,0.9,2.1,1.2c0.5,0.4,0.8,0.8,1.1,1.4c0.3,0.5,0.4,1.1,0.4,1.8
		c0,1.2-0.4,2.2-1.3,2.9c-0.9,0.8-1.9,1.2-3.1,1.2c-0.7,0-1.4-0.1-2-0.4c-0.7-0.3-1.2-0.7-1.6-1.1c-0.2,0.3-0.3,0.7-0.3,1.1H242.6z"
		/>
	<path class="st2" d="M259.3,106l1.3-2.8c0.2-0.5,0.3-0.8,0.3-0.9c0-0.3-0.3-0.5-0.8-0.5v-1h3.2v1c-0.4,0-0.7,0.2-0.8,0.4
		c-0.2,0.2-0.5,0.9-1.1,2l-3.1,6.5c-0.6,1.3-1.1,2.1-1.5,2.5c-0.4,0.4-0.8,0.6-1.4,0.6c-0.4,0-0.8-0.1-1-0.4
		c-0.3-0.3-0.4-0.6-0.4-0.9c0-0.6,0.4-1.1,1.3-1.3c0.8-0.2,1.4-0.4,1.6-0.6c0.3-0.2,0.6-0.7,0.9-1.4l-3.5-6l-0.2-0.3
		c-0.3-0.5-0.5-0.8-0.6-0.9c-0.1-0.1-0.4-0.2-0.7-0.2v-1h5.2v1c-0.5,0-0.8,0.2-0.8,0.4c0,0.1,0.1,0.3,0.3,0.7L259.3,106z"/>
	<path class="st2" d="M264.4,109.1l-0.1-2.7h1c0.5,1.1,1.4,1.7,2.8,1.7c0.6,0,1-0.1,1.4-0.3c0.4-0.2,0.6-0.4,0.6-0.7
		c0-0.2-0.1-0.4-0.3-0.5c-0.2-0.1-0.7-0.2-1.4-0.4c-1.1-0.2-2-0.4-2.5-0.7c-0.5-0.2-1-0.5-1.3-1c-0.3-0.4-0.5-0.9-0.5-1.5
		c0-0.8,0.3-1.5,1-2c0.7-0.5,1.6-0.8,2.7-0.8c0.9,0,1.7,0.2,2.6,0.5c0.2-0.1,0.3-0.3,0.4-0.5h0.8l0.1,2.4h-0.8c-0.5-1-1.5-1.5-3-1.5
		c-0.5,0-0.9,0.1-1.2,0.2c-0.3,0.2-0.5,0.4-0.5,0.6c0,0.3,0.1,0.5,0.4,0.6c0.2,0.1,0.9,0.3,1.8,0.5c1,0.2,1.8,0.4,2.3,0.6
		c0.5,0.2,0.9,0.5,1.2,0.9c0.3,0.4,0.4,0.9,0.4,1.4c0,0.9-0.4,1.6-1.1,2.1c-0.8,0.5-1.7,0.8-2.8,0.8c-0.9,0-1.7-0.2-2.7-0.5
		c-0.2,0.1-0.3,0.3-0.4,0.5H264.4z"/>
	<path class="st2" d="M277.8,101.8v4.2c0,0.7,0,1.2,0.1,1.4c0.1,0.2,0.3,0.3,0.6,0.3c0.4,0,0.8-0.3,1-0.8l1,0.3
		c-0.5,1.2-1.6,1.9-3.2,1.9c-0.9,0-1.6-0.2-2-0.7c-0.5-0.4-0.7-1.1-0.7-2v-4.7h-1.2v-1.1l0.2,0c0.8,0,1.5-0.3,2-0.8
		c0.6-0.5,0.9-1.1,1-1.9h1v2.7h2.4v1.1H277.8z"/>
	<path class="st2" d="M284.6,104.6c0,1.1,0.2,1.9,0.5,2.4c0.4,0.5,0.9,0.8,1.6,0.8c0.8,0,1.5-0.4,2.1-1.2l0.9,0.5
		c-0.4,0.5-0.9,1-1.6,1.3c-0.7,0.3-1.5,0.5-2.3,0.5c-1.3,0-2.4-0.4-3.3-1.2c-0.9-0.8-1.4-1.8-1.4-3.2c0-1.3,0.4-2.4,1.3-3.2
		c0.9-0.8,2-1.1,3.2-1.1c1.3,0,2.3,0.4,3.1,1.1c0.8,0.7,1.2,1.8,1.2,3.2H284.6z M284.6,103.7h2.5c0-1.4-0.5-2.2-1.3-2.2
		c-0.4,0-0.7,0.2-0.9,0.5C284.7,102.4,284.6,102.9,284.6,103.7z"/>
	<path class="st2" d="M295.7,103.3v3.1c0,0.5,0.1,0.8,0.2,1c0.2,0.2,0.5,0.3,1,0.3v1H291v-1h0.3c0.6,0,0.9-0.1,1.1-0.3
		c0.1-0.2,0.2-0.5,0.2-1v-2.7c0-0.5-0.1-0.8-0.2-1c-0.2-0.2-0.5-0.3-1.1-0.3v-1l4.3-0.7c0.1,0.3,0.2,0.7,0.2,1.3
		c0.4-0.5,0.9-0.9,1.5-1.1c0.6-0.2,1.2-0.4,1.9-0.4c0.7,0,1.4,0.1,1.8,0.4c0.5,0.3,0.8,0.7,1,1.3c0.4-0.6,0.9-1,1.4-1.3
		c0.6-0.3,1.2-0.4,1.9-0.4c0.6,0,1.1,0.1,1.6,0.3c0.5,0.2,0.8,0.5,1.1,0.8c0.2,0.3,0.4,0.6,0.5,0.9c0.1,0.3,0.1,0.8,0.1,1.4v2.6
		c0,0.5,0.1,0.8,0.3,1c0.2,0.2,0.6,0.3,1.2,0.3v1h-5.8v-1c0.5,0,0.8-0.1,1-0.3c0.1-0.2,0.2-0.5,0.2-1v-2.8c0-0.5-0.1-1-0.3-1.2
		c-0.2-0.3-0.5-0.4-0.9-0.4c-0.4,0-0.7,0.1-1.1,0.3c-0.3,0.2-0.7,0.6-1,1v3.1c0,0.5,0.1,0.8,0.2,1c0.2,0.2,0.5,0.3,1,0.3v1h-5.6v-1
		c0.5,0,0.8-0.1,0.9-0.3c0.2-0.2,0.2-0.5,0.2-1v-2.8c0-0.5-0.1-0.9-0.3-1.2c-0.2-0.3-0.5-0.4-0.9-0.4c-0.4,0-0.7,0.1-1,0.3
		C296.4,102.6,296.1,102.9,295.7,103.3z"/>
</g>
<g>
	<path class="st3" d="M111.8,3.8h13.4v15.1h14.6V3.8h13.4V47h-13.4V29.5h-14.6V47h-13.4V3.8z"/>
	<path class="st3" d="M159.7,31.4c0-4.8,1.6-8.7,4.8-11.8c3.2-3.1,7.6-4.6,13.1-4.6c6.3,0,11,1.8,14.2,5.5c2.6,2.9,3.9,6.5,3.9,10.8
		c0,4.8-1.6,8.8-4.8,11.8c-3.2,3.1-7.6,4.6-13.2,4.6c-5,0-9.1-1.3-12.2-3.8C161.6,40.7,159.7,36.5,159.7,31.4z M171.8,31.4
		c0,2.8,0.6,4.9,1.7,6.2c1.1,1.3,2.5,2,4.3,2c1.7,0,3.1-0.7,4.3-2c1.1-1.3,1.7-3.4,1.7-6.3c0-2.7-0.6-4.7-1.7-6.1
		c-1.1-1.3-2.5-2-4.2-2c-1.7,0-3.2,0.7-4.3,2C172.3,26.6,171.8,28.6,171.8,31.4z"/>
	<path class="st3" d="M196.9,15.7h11.6l5,19.7l6.4-19.7h10.8l6.6,19.8l5-19.8h11.5L242.3,47h-10.7l-6.3-18.8L219.2,47h-10.7
		L196.9,15.7z"/>
	<path class="st3" d="M267.6,25.8l-11.5-1.2c0.4-2,1.1-3.6,1.9-4.7c0.8-1.1,2-2.1,3.5-3c1.1-0.6,2.6-1.1,4.5-1.4
		c1.9-0.3,4-0.5,6.2-0.5c3.6,0,6.5,0.2,8.7,0.6c2.2,0.4,4,1.2,5.5,2.5c1,0.9,1.8,2.1,2.4,3.8c0.6,1.6,0.9,3.2,0.9,4.6v13.8
		c0,1.5,0.1,2.6,0.3,3.5c0.2,0.8,0.6,1.9,1.2,3.2H280c-0.5-0.8-0.7-1.4-0.9-1.8c-0.1-0.4-0.3-1.1-0.4-2c-1.6,1.5-3.1,2.6-4.7,3.2
		c-2.1,0.9-4.6,1.3-7.4,1.3c-3.7,0-6.6-0.9-8.5-2.6c-1.9-1.7-2.9-3.9-2.9-6.4c0-2.4,0.7-4.3,2.1-5.9c1.4-1.5,4-2.7,7.7-3.4
		c4.5-0.9,7.4-1.5,8.8-1.9c1.3-0.4,2.8-0.8,4.2-1.4c0-1.5-0.3-2.5-0.9-3.1c-0.6-0.6-1.7-0.9-3.2-0.9c-2,0-3.4,0.3-4.4,0.9
		C268.7,23.5,268.1,24.5,267.6,25.8z M278,32.1c-1.7,0.6-3.4,1.1-5.2,1.6c-2.4,0.6-4,1.3-4.6,1.9c-0.7,0.6-1,1.4-1,2.2
		c0,0.9,0.3,1.7,1,2.3c0.7,0.6,1.6,0.9,2.9,0.9c1.3,0,2.6-0.3,3.7-1c1.1-0.6,2-1.4,2.4-2.4c0.5-0.9,0.7-2.1,0.7-3.6V32.1z"/>
	<path class="st3" d="M297,15.7h11.2v5.1c1.1-2.2,2.2-3.7,3.3-4.6c1.1-0.8,2.6-1.3,4.3-1.3c1.8,0,3.7,0.5,5.8,1.7l-3.7,8.5
		c-1.4-0.6-2.5-0.9-3.4-0.9c-1.6,0-2.8,0.6-3.7,1.9c-1.2,1.8-1.9,5.2-1.9,10.3V47H297V15.7z"/>
	<path class="st3" d="M358.2,3.8V47h-11.2v-4.6c-1.6,2-3,3.3-4.3,4c-1.7,0.9-3.7,1.4-5.8,1.4c-4.3,0-7.5-1.6-9.8-4.9
		c-2.2-3.2-3.4-7.2-3.4-11.8c0-5.2,1.2-9.2,3.7-11.9c2.5-2.8,5.6-4.1,9.5-4.1c1.9,0,3.6,0.3,5.1,0.9c1.5,0.6,2.9,1.6,4.1,2.8v-15
		H358.2z M346.1,31.2c0-2.5-0.5-4.3-1.6-5.5c-1-1.2-2.4-1.8-3.9-1.8c-1.4,0-2.6,0.6-3.5,1.7c-0.9,1.2-1.4,3.1-1.4,5.8
		c0,2.6,0.5,4.4,1.5,5.6c1,1.2,2.2,1.8,3.6,1.8c1.5,0,2.8-0.6,3.8-1.8C345.6,35.9,346.1,33.9,346.1,31.2z"/>
</g>
<g>
	<path class="st3" d="M161.2,71.4l11.7,3.5c-0.8,3.3-2,6-3.7,8.2c-1.7,2.2-3.8,3.9-6.3,5c-2.5,1.1-5.7,1.7-9.6,1.7
		c-4.7,0-8.5-0.7-11.5-2c-3-1.4-5.5-3.8-7.7-7.2c-2.2-3.4-3.2-7.8-3.2-13.2c0-7.1,1.9-12.6,5.7-16.5c3.8-3.8,9.2-5.8,16.1-5.8
		c5.4,0,9.7,1.1,12.8,3.3c3.1,2.2,5.4,5.6,6.9,10.1l-11.8,2.6c-0.4-1.3-0.8-2.3-1.3-2.9c-0.7-1-1.7-1.8-2.7-2.4
		c-1.1-0.5-2.3-0.8-3.6-0.8c-3,0-5.3,1.2-7,3.6c-1.2,1.8-1.8,4.6-1.8,8.5c0,4.8,0.7,8.1,2.2,9.8c1.5,1.8,3.5,2.7,6.1,2.7
		c2.6,0,4.5-0.7,5.8-2.2C159.6,76.2,160.6,74.1,161.2,71.4z"/>
	<path class="st3" d="M177.1,73.5c0-4.8,1.6-8.7,4.8-11.8c3.2-3.1,7.6-4.6,13.1-4.6c6.3,0,11,1.8,14.2,5.5c2.6,2.9,3.9,6.5,3.9,10.8
		c0,4.8-1.6,8.8-4.8,11.8c-3.2,3.1-7.6,4.6-13.2,4.6c-5,0-9.1-1.3-12.2-3.8C179,82.8,177.1,78.7,177.1,73.5z M189.1,73.5
		c0,2.8,0.6,4.9,1.7,6.2c1.1,1.3,2.5,2,4.3,2c1.7,0,3.1-0.7,4.3-2c1.1-1.3,1.7-3.4,1.7-6.3c0-2.7-0.6-4.7-1.7-6.1
		c-1.1-1.3-2.5-2-4.2-2c-1.7,0-3.2,0.7-4.3,2C189.7,68.7,189.1,70.8,189.1,73.5z"/>
	<path class="st3" d="M251.8,89.1h-11.2V84c-1.7,2.1-3.4,3.6-5.1,4.5c-1.7,0.9-3.8,1.3-6.3,1.3c-3.3,0-5.9-1-7.8-3
		c-1.9-2-2.8-5-2.8-9.1V57.8h12.1V75c0,2,0.4,3.4,1.1,4.2c0.7,0.8,1.7,1.2,3.1,1.2c1.4,0,2.6-0.5,3.5-1.7c0.9-1.1,1.4-3.1,1.4-5.9
		V57.8h12V89.1z"/>
	<path class="st3" d="M259.1,57.8h11.2v5.1c1.7-2.1,3.4-3.6,5.1-4.5c1.7-0.9,3.8-1.3,6.2-1.3c3.3,0,5.9,1,7.8,3c1.9,2,2.8,5,2.8,9.2
		v19.9h-12.1V71.9c0-2-0.4-3.4-1.1-4.2c-0.7-0.8-1.7-1.2-3.1-1.2c-1.5,0-2.6,0.5-3.5,1.6c-0.9,1.1-1.4,3.1-1.4,5.9v15h-12V57.8z"/>
	<path class="st3" d="M313.8,45.9v11.9h6.6v8.8h-6.6v11.1c0,1.3,0.1,2.2,0.4,2.6c0.4,0.7,1.1,1,2.1,1c0.9,0,2.1-0.3,3.7-0.8l0.9,8.3
		c-3,0.6-5.7,1-8.3,1c-3,0-5.2-0.4-6.6-1.1c-1.4-0.8-2.5-1.9-3.1-3.5c-0.7-1.6-1-4.1-1-7.6v-11h-4.4v-8.8h4.4v-5.7L313.8,45.9z"/>
	<path class="st3" d="M322.7,57.8h12.7l6.5,20.8l6-20.8h11.8l-12.4,33.4c-1.4,3.8-2.9,6.4-4.3,7.7c-2.1,1.9-5.3,2.8-9.5,2.8
		c-1.7,0-4.4-0.2-8-0.7l-0.9-8.4c1.7,0.5,3.7,0.8,5.8,0.8c1.4,0,2.6-0.3,3.4-1c0.9-0.6,1.6-1.8,2.2-3.5L322.7,57.8z"/>
</g>
<path class="st4" d="M44.5,94c0,0-8.8-21.4,14.1-37.8c30.2-21.7,7.6-40.9,7.6-40.9S71.4,32.8,51,46.9C19.4,68.9,44.5,94,44.5,94"/>
<path class="st3" d="M51,46.9c17.9-12.4,16-27.5,15.3-31c-2.2-6.1-6.7-9.8-6.7-9.8S65.3,23.7,45,37.9c-30.1,20.9-9.1,44.4-7,46.6
	C33.6,75.1,31.6,60.4,51,46.9z"/>
<path class="st3" d="M72.7,24.4c0,0,0.1,0.4,0.3,1c2.8,7.6,2.1,18.8-14.5,30.8C35.7,72.5,44.5,94,44.5,94s-0.1-0.1-0.2-0.2
	c2.4,5.8,5.9,9.6,5.9,9.6s-7.8-22,15.1-38.4C95.4,43.2,72.7,24.4,72.7,24.4z"/>
</svg>
